<?xml version="1.0" standalone="no"?>
<!DOCTYPE svg PUBLIC "-//W3C//DTD SVG 20010904//EN"
 "http://www.w3.org/TR/2001/REC-SVG-20010904/DTD/svg10.dtd">
<svg version="1.0" xmlns="http://www.w3.org/2000/svg"
 width="260.000000pt" height="260.000000pt" viewBox="0 0 260.000000 260.000000"
 preserveAspectRatio="xMidYMid meet">
<metadata>
Created by potrace 1.11, written by Peter Selinger 2001-2013
</metadata>
<g transform="translate(0.000000,260.000000) scale(0.100000,-0.100000)"
fill="#000000" stroke="none">
<path d="M929 2493 c0 -5 0 -51 1 -104 1 -81 -2 -97 -15 -103 -25 -9 -191 -7
-265 4 -35 5 -66 7 -68 5 -3 -2 -2 -19 2 -37 l6 -33 171 4 171 3 -3 -83 -4
-84 53 -3 c74 -4 82 5 82 94 l0 74 135 0 134 0 3 -82 3 -83 40 3 c86 5 85 4
85 87 l0 75 225 0 c272 0 272 0 139 112 l-86 72 -64 -67 -64 -68 -72 3 -73 3
0 59 c0 59 0 59 35 71 39 13 50 39 23 53 -20 11 -185 33 -192 26 -3 -3 -4 -46
-3 -97 2 -50 -1 -98 -6 -105 -6 -9 -40 -12 -133 -10 l-124 3 -3 58 c-2 47 0
57 13 57 26 0 75 29 75 45 0 16 -45 30 -125 40 -27 3 -60 8 -72 11 -13 2 -23
1 -24 -3z"/>
<path d="M200 2430 c6 -11 47 -58 90 -105 73 -77 85 -94 81 -118 -1 -5 3 -6 8
-3 4 3 20 -12 35 -34 16 -24 34 -40 46 -40 27 0 52 43 58 99 8 92 -34 132
-201 190 -107 38 -132 40 -117 11z"/>
<path d="M580 2094 c-17 -44 -208 -490 -277 -646 -36 -81 -71 -153 -79 -159
-13 -11 -34 -10 -111 7 -28 5 -33 4 -32 -12 0 -13 18 -28 57 -46 101 -48 112
-93 87 -337 -16 -144 -16 -172 -5 -186 31 -37 127 11 161 81 27 57 23 130 -15
282 -32 126 -51 42 160 703 57 179 104 329 104 333 0 3 -9 6 -20 6 -13 0 -24
-10 -30 -26z"/>
<path d="M678 1823 c-2 -142 -1 -264 1 -272 3 -10 17 -12 57 -8 68 7 74 11 74
53 l0 34 150 0 150 0 0 -67 c0 -51 -5 -77 -21 -102 l-20 -33 -230 3 c-226 4
-230 4 -225 -16 3 -11 6 -27 6 -35 0 -13 29 -15 211 -12 202 3 211 3 205 -15
-15 -38 -36 -128 -36 -155 l0 -28 -164 0 c-91 0 -199 5 -241 11 -42 6 -79 8
-82 6 -2 -3 -1 -20 2 -39 l6 -33 240 3 239 4 0 -35 c0 -40 -36 -88 -116 -158
-100 -87 -193 -135 -364 -189 -60 -19 -86 -32 -88 -45 -4 -15 2 -16 50 -10
158 21 351 93 474 177 l51 35 18 -56 c61 -200 245 -374 450 -426 76 -19 234
-19 310 0 33 9 87 29 120 45 l60 29 225 -224 c124 -124 234 -231 245 -239 11
-9 37 -16 58 -16 76 0 126 95 81 155 -8 11 -113 119 -234 240 l-219 220 31 45
c41 61 74 133 93 205 20 80 21 328 0 410 -54 214 -248 410 -452 458 l-53 12 0
85 c0 84 1 85 30 102 17 9 30 24 30 32 0 15 -116 106 -135 106 -6 0 -29 -18
-50 -40 l-39 -40 -378 0 -377 0 -62 40 c-34 22 -66 40 -70 40 -5 0 -10 -116
-11 -257z m437 117 c3 -5 3 -66 -1 -135 l-7 -126 -146 3 -146 3 -3 119 c-1 66
0 126 2 133 7 16 291 19 301 3z m485 -85 l0 -95 -33 0 c-45 0 -140 -26 -208
-56 -31 -14 -67 -24 -80 -22 -26 3 -25 -10 -21 173 l2 95 170 0 170 0 0 -95z
m-7 -275 c4 -17 14 -20 57 -20 29 0 67 7 86 16 31 15 37 15 86 -1 128 -42 248
-131 328 -247 l44 -63 4 -112 c4 -95 1 -124 -18 -185 -41 -136 -120 -243 -233
-318 -174 -114 -422 -122 -604 -19 -105 60 -203 171 -243 277 l-17 45 35 46
c19 25 42 61 50 79 9 17 19 32 24 32 4 0 24 -26 44 -57 45 -70 132 -158 207
-207 98 -65 343 -157 380 -143 8 3 18 19 22 36 7 32 66 91 90 91 10 0 15 10
15 30 0 17 -3 30 -8 30 -38 0 -280 34 -327 46 -107 27 -283 120 -310 164 -4 7
97 10 310 10 l316 0 -3 27 c-2 20 -26 47 -88 100 -46 40 -91 73 -100 72 -8 0
-40 -29 -70 -64 l-55 -64 -203 -1 c-198 0 -203 1 -197 20 3 10 12 50 19 87
l12 68 295 5 294 5 0 25 c0 19 -19 39 -78 87 -44 35 -89 63 -101 63 -13 0 -42
-20 -71 -50 l-49 -50 -139 0 -138 0 3 27 c2 22 16 33 78 65 78 40 163 66 216
67 24 1 33 -4 37 -19z"/>
<path d="M55 2021 c-3 -6 31 -50 77 -99 46 -49 94 -108 108 -131 44 -75 64
-94 88 -87 32 10 52 57 52 119 0 45 -4 57 -27 79 -35 32 -153 92 -213 108 -25
6 -52 13 -62 16 -9 3 -19 0 -23 -5z"/>
</g>
</svg>
